# xmcd
#
# Track frame offsets:
#	150
#	16912
#	31671
#	45487
#	62946
#	78833
#	93338
#	115575
#	131926
#	149995
#	169757
#	188150
#	204386
#
# Disc length: 2917 seconds
# Revision: 0
# Processed by: cddbd v1.5.2PL0 Copyright (c) Steve Scherf et al.
# Submitted via: dBpowerAMP V12.0
#
DISCID=ae0b630d
DTITLE=Casey Weston - Find The Moon
DYEAR=2013
DGENRE=Country
TTITLE0=Happy
TTITLE1=Close To Breaking
TTITLE2=Heart Don't Fail Me Now
TTITLE3=Back To The Start
TTITLE4=Cigarettes and Whiskey
TTITLE5=Into Your Heart
TTITLE6=Not Leavin Tonight
TTITLE7=Crazy Fools
TTITLE8=Headed West
TTITLE9=Waste Of My Time
TTITLE10=Like You
TTITLE11=Ain't Life Beautiful That Way
TTITLE12=The Good Times
EXTD=
EXTT0=
EXTT1=
EXTT2=
EXTT3=
EXTT4=
EXTT5=
EXTT6=
EXTT7=
EXTT8=
EXTT9=
EXTT10=
EXTT11=
EXTT12=
PLAYORDER=
